<svg width="60" height="60" viewBox="0 0 60 60" fill="none" xmlns="http://www.w3.org/2000/svg">
<path d="M59.6564 15.8985L44.1014 0.343125C43.6438 -0.114375 42.902 -0.114375 42.4441 0.343125L38.3015 4.48547C38.0817 4.70525 37.9583 5.00331 37.9583 5.3141C37.9583 5.62489 38.0817 5.92295 38.3015 6.14273L43.2225 11.0637L38.5636 15.7226L31.3926 8.55152C30.9348 8.09391 30.1929 8.09402 29.7352 8.55152L24.9768 13.3099C24.7571 13.5297 24.6336 13.8278 24.6336 14.1386C24.6336 14.4493 24.7571 14.7474 24.9768 14.9672L26.488 16.4784L7.06515 35.902C5.28038 37.6868 5.28038 40.5911 7.06515 42.3762L8.55636 43.8674L5.82214 46.6016C5.71331 46.7104 5.62698 46.8396 5.56808 46.9818C5.50918 47.124 5.47887 47.2763 5.47887 47.4302C5.47887 47.5841 5.50918 47.7365 5.56808 47.8787C5.62698 48.0209 5.71331 48.1501 5.82214 48.2589L7.95284 50.3897L0.343274 57.9991C-0.114343 58.4568 -0.114343 59.1988 0.343274 59.6565C0.572141 59.8854 0.872024 59.9998 1.17191 59.9998C1.47179 59.9998 1.77179 59.8854 2.00054 59.6565L9.61023 52.0468L11.741 54.1777C11.9608 54.3974 12.2589 54.5208 12.5697 54.5208C12.8805 54.5208 13.1785 54.3974 13.3983 54.1777L16.1325 51.4434L17.6237 52.9347C18.4884 53.7993 19.6381 54.2754 20.8608 54.2754C22.0835 54.2754 23.2333 53.7993 24.0979 52.9347L43.521 33.5116L45.0323 35.0229C45.141 35.1319 45.2701 35.2183 45.4123 35.2772C45.5545 35.3361 45.707 35.3663 45.8609 35.3661C46.1609 35.3661 46.4607 35.2518 46.6895 35.0229L51.4478 30.2645C51.6675 30.0447 51.791 29.7466 51.791 29.4359C51.791 29.1251 51.6675 28.827 51.4478 28.6072L44.2768 21.4362L48.9357 16.7773L53.8566 21.6982C53.9653 21.8072 54.0945 21.8936 54.2367 21.9525C54.3789 22.0114 54.5313 22.0416 54.6852 22.0414C54.9852 22.0414 55.285 21.9271 55.5139 21.6982L59.6563 17.5557C60.1142 17.0982 60.1142 16.3562 59.6564 15.8985ZM24.7359 21.546L30.1576 26.9678C30.2663 27.0768 30.3955 27.1632 30.5377 27.2221C30.6799 27.281 30.8324 27.3112 30.9863 27.311C31.2863 27.311 31.586 27.1966 31.8149 26.9678C32.2725 26.5102 32.2725 25.7681 31.8149 25.3105L26.3931 19.8887L28.1454 18.1364L38.2341 28.2251L32.8748 33.5844L22.786 23.4956L24.7359 21.546ZM12.5697 51.6916L8.30804 47.4301L10.2137 45.5246L14.4751 49.7861L12.5697 51.6916ZM22.4404 51.2773C21.5694 52.1482 20.1521 52.1483 19.2811 51.2773L8.72241 40.7187C7.85136 39.8476 7.85136 38.4302 8.72241 37.5593L10.3916 35.8901L13.2773 38.7757C13.5061 39.0046 13.806 39.1189 14.1059 39.1189C14.4058 39.1189 14.7058 39.0046 14.9345 38.7757C15.3921 38.3181 15.3921 37.5761 14.9345 37.1183L12.0489 34.2327L13.9775 32.304L19.3991 37.7257C19.628 37.9546 19.9279 38.0689 20.2278 38.0689C20.5276 38.0689 20.8277 37.9545 21.0564 37.7257C21.514 37.2681 21.514 36.5261 21.0564 36.0684L15.6346 30.6466L17.5633 28.718L20.4489 31.6036C20.6778 31.8325 20.9776 31.9468 21.2775 31.9468C21.5774 31.9468 21.8774 31.8325 22.1062 31.6036C22.5638 31.146 22.5638 30.4039 22.1062 29.9462L19.2205 27.0606L21.1281 25.153L31.2169 35.2417L23.5961 42.8626C23.1385 43.3202 23.1385 44.0623 23.5961 44.52C23.825 44.7489 24.1248 44.8632 24.4247 44.8632C24.7246 44.8632 25.0246 44.7487 25.2534 44.52L32.8742 36.8991L34.846 38.8709L22.4404 51.2773ZM36.5042 37.2137L34.5324 35.2417L39.8917 29.8822L41.8635 31.854L36.5042 37.2137ZM48.9619 29.4359L45.8609 32.5369L27.4628 14.1389L30.5638 11.0379L48.9619 29.4359ZM42.6196 19.7789L40.2209 17.3802L44.8798 12.7212L47.2785 15.1199L42.6196 19.7789ZM54.6856 19.2123L40.7876 5.31422L43.2728 2.82902L57.1708 16.727L54.6856 19.2123Z" fill="#F1CDB3"/>
<path d="M22.3157 46.7207C22.3016 46.6457 22.2782 46.5719 22.2489 46.5016C22.2198 46.4306 22.1836 46.3627 22.1411 46.2988C22.0989 46.2344 22.0497 46.1746 21.9958 46.1207C21.9419 46.0668 21.8821 46.0176 21.8176 45.9754C21.7538 45.9328 21.6859 45.8967 21.6149 45.8676C21.5446 45.8383 21.4708 45.816 21.3958 45.8008C21.2449 45.7703 21.0896 45.7703 20.9387 45.8008C20.8637 45.816 20.7899 45.8383 20.7196 45.8676C20.6481 45.8969 20.5801 45.9332 20.5169 45.9754C20.4524 46.0176 20.3926 46.0668 20.3387 46.1207C20.2848 46.1746 20.2356 46.2344 20.1934 46.2988C20.1512 46.362 20.1149 46.4301 20.0856 46.5016C20.0563 46.5719 20.0329 46.6457 20.0188 46.7207C20.0036 46.7957 19.9954 46.8731 19.9954 46.9492C19.9954 47.0254 20.0036 47.1028 20.0188 47.1789C20.0329 47.2528 20.0563 47.3266 20.0856 47.3981C20.1149 47.4684 20.1512 47.5364 20.1934 47.5996C20.2356 47.6641 20.2848 47.7239 20.3387 47.7778C20.4475 47.8871 20.577 47.9735 20.7196 48.0321C20.8614 48.0913 21.0136 48.1216 21.1672 48.1211C21.3209 48.1216 21.4731 48.0913 21.6149 48.0321C21.7575 47.9735 21.887 47.8871 21.9958 47.7778C22.0497 47.7239 22.0989 47.6641 22.1411 47.5996C22.1833 47.5364 22.2196 47.4684 22.2489 47.3981C22.2782 47.3266 22.3016 47.2528 22.3157 47.1789C22.3309 47.1028 22.3391 47.0254 22.3391 46.9492C22.3391 46.8731 22.3309 46.7957 22.3157 46.7207Z" fill="#F1CDB3"/>
</svg>
